<?xml version="1.0" encoding="UTF-8" standalone="no"?>
<!-- Created with Inkscape (http://www.inkscape.org/) -->

<svg
   xmlns:dc="http://purl.org/dc/elements/1.1/"
   xmlns:cc="http://creativecommons.org/ns#"
   xmlns:rdf="http://www.w3.org/1999/02/22-rdf-syntax-ns#"
   xmlns:svg="http://www.w3.org/2000/svg"
   xmlns="http://www.w3.org/2000/svg"
   xmlns:sodipodi="http://sodipodi.sourceforge.net/DTD/sodipodi-0.dtd"
   xmlns:inkscape="http://www.inkscape.org/namespaces/inkscape"
   width="210mm"
   height="297mm"
   viewBox="0 0 210 297"
   version="1.1"
   id="svg4787"
   inkscape:version="0.92.4 (5da689c313, 2019-01-14)"
   sodipodi:docname="image.svg">
  <defs
     id="defs4781" />
  <sodipodi:namedview
     id="base"
     pagecolor="#ffffff"
     bordercolor="#666666"
     borderopacity="1.0"
     inkscape:pageopacity="0.0"
     inkscape:pageshadow="2"
     inkscape:zoom="0.35"
     inkscape:cx="-70"
     inkscape:cy="331.42857"
     inkscape:document-units="mm"
     inkscape:current-layer="layer1"
     showgrid="false"
     inkscape:window-width="1920"
     inkscape:window-height="1001"
     inkscape:window-x="-9"
     inkscape:window-y="-9"
     inkscape:window-maximized="1" />
  <metadata
     id="metadata4784">
    <rdf:RDF>
      <cc:Work
         rdf:about="">
        <dc:format>image/svg+xml</dc:format>
        <dc:type
           rdf:resource="http://purl.org/dc/dcmitype/StillImage" />
        <dc:title></dc:title>
      </cc:Work>
    </rdf:RDF>
  </metadata>
  <g
     inkscape:label="Layer 1"
     inkscape:groupmode="layer"
     id="layer1">
    <g
       id="g12493"
       transform="matrix(0.03527778,0,0,-0.03527778,-274.3426,392.316)"
       style="fill:none;stroke:#270000;stroke-opacity:1">
      <path
         id="path12491"
         d="m 7048,12754 c -16,-17 -28,-35 -28,-39 0,-4 42,-51 93,-104 444,-464 990,-1155 1360,-1722 787,-1208 1233,-2365 1339,-3474 18,-194 15,-687 -6,-865 -61,-525 -190,-972 -411,-1425 -229,-468 -540,-873 -885,-1151 -100,-81 -250,-187 -281,-199 -10,-4 -175,165 -530,542 -283,302 -810,861 -1170,1243 -2322,2465 -2759,2931 -2759,2940 0,6 961,865 1517,1355 l 23,20 -275,373 c -151,205 -314,418 -362,474 l -87,101 -326,-7 c -179,-3 -620,-11 -980,-17 l -655,-10 -355,-353 C 1774,9944 193,8383 88,8281 33,8228 0,8188 0,8176 0,8135 1601,6561 1632,6572 c 3,2 296,264 649,583 354,319 653,588 665,597 21,17 36,0 1870,-2109 1017,-1169 1850,-2129 1852,-2134 2,-4 -48,6 -110,22 -705,187 -1382,648 -2104,1433 l -110,118 -304,-363 c -168,-200 -313,-374 -323,-386 -18,-22 -18,-24 8,-57 l 26,-34 -76,-76 c -52,-52 -111,-130 -192,-253 -64,-98 -144,-214 -178,-258 -182,-234 -479,-447 -957,-686 -410,-205 -577,-304 -768,-458 -203,-162 -493,-486 -558,-622 -106,-224 -116,-440 -31,-635 77,-175 247,-338 452,-434 139,-65 244,-91 392,-97 227,-9 314,25 505,199 211,191 384,399 516,614 88,146 132,234 258,524 141,323 227,497 323,655 176,292 279,402 592,628 102,75 183,143 241,204 79,83 89,91 101,76 27,-31 335,-300 468,-408 401,-323 758,-555 1155,-751 392,-194 739,-308 1131,-371 140,-23 191,-26 415,-27 140,-1 285,2 322,7 l 66,7 670,-770 c 550,-633 676,-782 701,-835 61,-131 210,-303 347,-401 115,-82 153,-89 256,-45 246,105 845,560 915,695 37,72 -9,215 -130,399 -89,135 -137,189 -791,868 l -629,653 25,20 c 214,179 421,386 561,561 522,655 881,1520 1016,2450 245,1683 -278,3350 -1562,4985 -584,742 -1439,1564 -2162,2076 l -70,50 z m 848,-745 c 1324,-1174 2281,-2559 2684,-3887 118,-386 178,-682 232,-1137 18,-149 18,-836 0,-1000 -50,-469 -133,-858 -267,-1260 -286,-858 -765,-1568 -1359,-2019 -394,-299 -835,-478 -1321,-537 -128,-15 -450,-15 -585,0 -863,100 -1746,550 -2660,1357 -308,272 -796,763 -786,791 6,15 505,613 512,613 3,0 104,-101 226,-225 308,-314 524,-503 797,-699 1056,-758 2110,-848 2997,-257 169,113 270,196 424,351 493,493 858,1182 1029,1942 71,316 91,501 98,883 5,342 -5,517 -48,810 -132,901 -501,1863 -1092,2850 -127,212 -431,668 -587,880 -206,280 -570,735 -681,850 -22,23 -39,44 -39,48 0,11 237,-187 426,-354 z M 4596,10664 c 33,-40 45,-60 38,-69 -5,-7 -443,-424 -974,-927 -531,-502 -1329,-1257 -1774,-1678 -444,-421 -810,-766 -814,-768 -4,-1 -221,212 -482,473 l -475,475 170,169 c 94,93 667,660 1274,1259 l 1103,1090 102,6 c 106,6 1047,21 1512,24 l 272,2 z m 359,-468 c 124,-170 223,-312 218,-316 -4,-4 -330,-292 -723,-640 -393,-348 -724,-641 -736,-651 -20,-19 -21,-18 -153,123 -148,159 -176,177 -276,177 -100,1 -135,-22 -370,-244 -125,-118 -219,-215 -233,-240 -31,-58 -43,-141 -31,-217 12,-71 3,-58 129,-203 52,-60 101,-117 108,-126 11,-14 -68,-89 -618,-585 -347,-313 -635,-569 -640,-569 -5,0 -117,101 -250,225 -229,212 -241,225 -223,240 17,13 1782,1684 3087,2922 348,329 464,433 472,425 7,-7 114,-151 239,-321 z M 3356,8777 c 12,-7 171,-172 355,-367 184,-195 661,-701 1059,-1125 820,-871 2676,-2841 3088,-3280 l 274,-290 -109,-52 c -147,-70 -350,-137 -518,-169 -129,-26 -159,-28 -390,-28 -203,-1 -255,2 -277,14 -14,8 -613,690 -1330,1515 -716,825 -1629,1875 -2028,2334 -566,651 -727,842 -733,870 -11,47 -2,113 20,154 21,39 394,396 438,420 35,19 121,21 151,4 z m 696,-4842 228,-231 -49,-60 c -52,-64 -132,-133 -281,-239 -154,-111 -219,-166 -320,-272 -199,-209 -361,-479 -560,-938 -239,-552 -372,-771 -629,-1038 -177,-183 -292,-282 -357,-307 -94,-35 -194,-45 -303,-31 -365,48 -679,298 -740,589 -27,129 -3,288 64,429 60,127 302,404 495,565 196,164 323,243 742,456 414,211 620,339 828,517 123,104 208,207 358,435 90,137 160,231 211,283 41,42 77,76 80,75 3,-2 108,-107 233,-233 z M 9845,1905 c 388,-403 534,-562 524,-567 C 9959,1103 9508,806 9364,677 l -49,-45 -637,732 -636,731 62,13 c 370,80 731,233 1011,430 l 70,49 61,-61 c 34,-34 304,-313 599,-621 z m 663,-697 c 111,-140 212,-318 227,-398 5,-31 1,-41 -40,-87 -169,-192 -784,-623 -889,-623 -85,0 -362,271 -421,413 l -15,35 70,65 c 115,107 497,361 864,576 77,44 143,81 147,81 4,0 30,-28 57,-62 z"
         style="fill:none;stroke:#270000;stroke-opacity:1" />
    </g>
  </g>
</svg>
